<svg width="140" height="64" viewBox="0 0 140 64" xmlns="http://www.w3.org/2000/svg"><title>Group</title><g fill="#A5B893" fill-rule="evenodd"><path d="M55.003 47.45V13.939H42.995l-7.034 18.187-6.983-18.187H16.97v33.51h8.642V25.646l8.44 21.805h3.818l8.491-21.805V47.45zm60.411 0H95.82V13.939h18.991c6.632 0 9.797 4.32 9.797 8.541 0 4.17-2.562 6.983-5.727 7.687 3.567.552 6.38 3.969 6.38 8.19 0 4.872-3.265 9.093-9.847 9.093zm-2.562-20.65c1.758 0 2.964-1.155 2.964-2.813 0-1.608-1.206-2.763-2.964-2.763h-8.39v5.577h8.39zm.301 13.365c2.06 0 3.316-1.206 3.316-3.015 0-1.658-1.205-3.014-3.316-3.014h-8.691v6.029h8.691zM86.816 32.83v-4.623h-8.742v-9.596H73v9.596h-8.742v4.623H73v9.947h5.074V32.83z"/><path d="M4.187 59.312V4.187H135.37v59.312h4.187V0H0v63.499h128.892v-4.187H4.187z"/></g></svg>