<?xml version="1.0" encoding="UTF-8"?>
<svg width="140px" height="64px" viewBox="0 0 140 64" version="1.1" xmlns="http://www.w3.org/2000/svg" xmlns:xlink="http://www.w3.org/1999/xlink">
    <!-- Generator: Sketch 45.2 (43514) - http://www.bohemiancoding.com/sketch -->
    <title>Group</title>
    <desc>Created with Sketch.</desc>
    <defs></defs>
    <g id="Identity" stroke="none" stroke-width="1" fill="none" fill-rule="evenodd">
        <g id="Group" fill="#A5B893">
            <polygon id="M" points="55.0025332 47.4496633 55.0025332 13.9390364 42.9949772 13.9390364 35.9612624 32.1262132 28.9777885 13.9390364 16.9702325 13.9390364 16.9702325 47.4496633 25.6116535 47.4496633 25.6116535 25.6451474 34.0521113 47.4496633 37.8704136 47.4496633 46.3611122 25.6451474 46.3611122 47.4496633"></polygon>
            <path d="M115.414328,47.4496633 L95.8204082,47.4496633 L95.8204082,13.9390364 L114.811438,13.9390364 C121.443226,13.9390364 124.608398,18.2597469 124.608398,22.4799758 C124.608398,26.6499638 122.046116,29.4634497 118.880945,30.1668212 C122.448043,30.7194702 125.261529,34.135846 125.261529,38.3560749 C125.261529,43.2294344 121.995875,47.4496633 115.414328,47.4496633 Z M112.852046,26.8006863 C114.610475,26.8006863 115.816255,25.6451474 115.816255,23.9872004 C115.816255,22.3794941 114.610475,21.2239553 112.852046,21.2239553 L104.461829,21.2239553 L104.461829,26.8006863 L112.852046,26.8006863 Z M113.153491,40.1647444 C115.213365,40.1647444 116.469385,38.9589647 116.469385,37.1502952 C116.469385,35.4923481 115.263606,34.135846 113.153491,34.135846 L104.461829,34.135846 L104.461829,40.1647444 L113.153491,40.1647444 Z" id="B"></path>
            <polygon id="+" points="86.8161368 32.8295847 86.8161368 28.2074292 78.0742342 28.2074292 78.0742342 18.6114326 72.9999113 18.6114326 72.9999113 28.2074292 64.2580087 28.2074292 64.2580087 32.8295847 72.9999113 32.8295847 72.9999113 42.777267 78.0742342 42.777267 78.0742342 32.8295847"></polygon>
            <path d="M4.18673499,59.3120791 L4.18673499,4.18673499 L135.371098,4.18673499 L135.371098,63.4988141 L139.557833,63.4988141 L139.557833,2.0933675 L139.557833,4.57411886e-14 L2.0933675,5.41584595e-14 L0,0 L0,61.4054466 L5.68434189e-13,63.4988141 L128.892406,63.4988141 L128.892406,59.3120791 L4.18673499,59.3120791 Z" id="Border"></path>
        </g>
    </g>
</svg>