<?xml version="1.0" standalone="no"?>
<!DOCTYPE svg PUBLIC "-//W3C//DTD SVG 20010904//EN"
 "http://www.w3.org/TR/2001/REC-SVG-20010904/DTD/svg10.dtd">
<svg version="1.0" xmlns="http://www.w3.org/2000/svg"
 width="512.000000pt" height="512.000000pt" viewBox="0 0 512.000000 512.000000"
 preserveAspectRatio="xMidYMid meet">
<metadata>
Created by potrace 1.11, written by Peter Selinger 2001-2013
</metadata>
<g transform="translate(0.000000,512.000000) scale(0.100000,-0.100000)"
fill="#000000" stroke="none">
<path d="M175 3660 l-40 -5 0 -1090 c0 -600 3 -1092 7 -1095 3 -3 37 -4 75 -4
37 1 1038 2 2223 3 l2156 1 -2 68 c-1 37 -2 69 -3 72 0 3 -970 5 -2153 5
l-2153 -1 1 941 c1 517 2 945 3 951 1 7 669 10 2269 10 l2267 -1 2 -1005 c1
-553 2 -1014 2 -1026 1 -19 7 -20 74 -20 l72 1 0 1098 0 1097 -25 1 c-132 3
-4745 3 -4775 -1z"/>
<path d="M730 2609 l0 -579 149 0 c110 0 150 3 153 13 2 6 3 173 3 369 0 197
2 354 6 350 3 -4 35 -83 72 -177 36 -93 100 -255 141 -360 l74 -190 69 -3 68
-2 104 262 c57 145 109 277 116 293 7 17 25 62 40 102 16 40 31 71 34 69 3 -2
6 -167 5 -365 l-1 -361 152 0 152 0 -2 573 c-1 314 -2 575 -3 579 -1 4 -95 6
-209 5 l-208 -2 -34 -85 c-18 -47 -39 -98 -46 -115 -7 -16 -48 -120 -91 -230
-63 -161 -79 -195 -85 -175 -3 14 -33 93 -66 175 -33 83 -79 200 -103 260 -23
61 -49 124 -57 142 l-15 32 -209 0 -209 -1 0 -579z"/>
<path d="M3460 2609 l0 -579 374 0 c417 1 435 3 523 70 32 24 58 55 78 95 27
53 30 68 30 149 0 83 -3 96 -31 146 -34 60 -100 118 -146 127 l-29 6 51 28
c57 31 80 56 109 114 63 125 20 284 -96 362 -86 58 -125 62 -514 62 l-349 0 0
-580z m639 326 c52 -26 59 -95 15 -136 -24 -23 -33 -24 -190 -27 l-164 -3 0
90 0 91 155 0 c118 0 163 -4 184 -15z m29 -481 c57 -43 58 -124 2 -166 -22
-16 -46 -18 -180 -19 -85 -1 -163 -1 -172 0 -16 1 -18 13 -18 104 l0 102 170
0 c155 -1 173 -3 198 -21z"/>
<path d="M2662 2858 c0 -84 -1 -159 -1 -165 -1 -10 -38 -13 -149 -13 l-148 0
0 -80 -1 -79 150 -3 151 -3 -1 -167 -1 -168 29 -1 c16 0 47 -1 69 -1 84 0 76
-16 75 160 0 86 1 163 3 170 3 9 42 12 151 12 l146 0 0 78 0 77 -150 5 -150 5
0 163 1 162 -87 0 -87 0 0 -152z"/>
</g>
</svg>
